<svg xmlns="http://www.w3.org/2000/svg" viewBox="0 0 50 50"><g id="icons"><path d="M17.45,39.34a2.19,2.19,0,0,1-2.18-2.53l1.1-7.29a.72.72,0,0,0-.22-.62L10.83,24A2.2,2.2,0,0,1,12,20.18L19.17,19a.72.72,0,0,0,.51-.39l3.17-6.66a2.18,2.18,0,0,1,1.95-1.25h0a2.18,2.18,0,0,1,1.95,1.2l3.36,6.51a.69.69,0,0,0,.53.37l7.28,1a2.2,2.2,0,0,1,1.27,3.74L34.1,28.57a.71.71,0,0,0-.2.63l1.36,7.21a2.2,2.2,0,0,1-.85,2.17,2.17,2.17,0,0,1-2.31.2l-6.49-3.27a.68.68,0,0,0-.65,0l-6.45,3.55A2.23,2.23,0,0,1,17.45,39.34Zm7.39-27.19h0a.72.72,0,0,0-.63.4L21,19.21a2.22,2.22,0,0,1-1.62,1.23l-7.21,1.22a.69.69,0,0,0-.56.49.7.7,0,0,0,.2.71l5.32,4.94a2.18,2.18,0,0,1,.68,1.94L16.76,37a.68.68,0,0,0,.29.68.7.7,0,0,0,.74,0l6.45-3.55a2.19,2.19,0,0,1,2.05,0l6.49,3.28a.69.69,0,0,0,.73-.07.68.68,0,0,0,.27-.69l-1.35-7.22a2.2,2.2,0,0,1,.6-2l5.14-5.13a.7.7,0,0,0,.17-.72.68.68,0,0,0-.57-.47l-7.29-1A2.21,2.21,0,0,1,28.81,19l-3.35-6.51A.69.69,0,0,0,24.84,12.15Z"/></g></svg>